<svg version="1.2" xmlns="http://www.w3.org/2000/svg" viewBox="0 0 1500 329" width="1500" height="329">
	<title>Logo-Kerakoll-Ardesia</title>
	<style>
		.s0 { fill: #464848 } 
	</style>
	<path id="Path 0" fill-rule="evenodd" class="s0" d="m31 17h71v77c0 42.4 0.3 77.2 0.8 77.4 0.4 0.3 12.9-17.3 54.7-78.4h36.8c29.1 0 36.6 0.3 36 1.3-0.4 0.6-15.1 21-32.6 45.2-17.6 24.2-32.4 44.4-32.8 45-0.5 0.6 13.4 23.2 34.8 56.5 19.6 30.5 35.7 56.3 35.9 57.3 0.4 1.6-1.9 1.7-78.1 1.2l-27-43.7c-14.8-24.1-27.3-43.5-27.8-43.3-0.4 0.3-0.7 20.1-0.7 87.5l-70.5-0.5zm822 0h71v77c0 42.4 0.3 77.2 0.8 77.4 0.4 0.3 12.9-17.3 54.7-78.5l36.8 0.1c29.1 0 36.6 0.3 36 1.2-0.4 0.7-14.4 20.2-31.3 43.3-16.8 23.1-31.5 43.3-34.9 48l35.6 55.5c19.5 30.5 35.7 56.3 35.9 57.3 0.4 1.6-1.9 1.7-78 1.2l-27.1-43.7c-14.8-24-27.3-43.5-27.7-43.3-0.5 0.3-0.8 20.1-0.8 87.5l-70.5-0.5zm442 0h71l-0.5 282.5-70.5 0.5zm104 0h71l-0.5 282.5h-70zm-1062 70.1c4.7 0 12.3 0.4 17 0.9 4.7 0.6 12.8 2.2 18 3.6 5.2 1.3 13.6 4.4 18.5 6.8 5 2.5 11.9 6.6 15.5 9.3 3.6 2.8 9 7.7 12 11 3 3.4 7.7 9.6 10.3 14 2.6 4.3 6.3 12.3 8.2 17.8 1.9 5.5 4.1 14.1 5 19 1 5.8 1.5 15.2 1.5 43.5h-145l0.6 4.3c0.4 2.3 1.5 6.9 2.6 10.2 1.1 3.3 3.6 8.4 5.6 11.4 2.1 2.9 5.3 6.5 7.2 7.9 1.9 1.4 6 3.7 9 5.2 5 2.3 6.7 2.5 18.5 2.5 12.6 0 13.3-0.1 19.5-3.2 4.1-1.9 7.6-4.5 9.5-7 1.6-2.1 3.7-5.8 6.3-12.8l66.2-0.5v2.3c0.1 1.2-1.1 6.3-2.5 11.2-1.4 4.9-4.3 12.1-6.3 15.9-2 3.8-6.8 10.2-10.7 14.4-3.8 4.1-10.1 9.5-14 12-3.8 2.6-9.9 5.9-13.5 7.4-3.6 1.5-10.8 3.8-16 5.2-5.2 1.5-16.2 3.3-24.5 4.2-9.3 1-18 1.3-23 0.9-4.4-0.3-12-1.2-17-2-4.9-0.8-12.4-2.4-16.5-3.5-4.1-1.2-11.8-4.2-17-6.6-5.2-2.5-12.2-6.5-15.5-8.8-3.3-2.4-9.5-8-13.7-12.5-4.3-4.4-9.8-11.6-12.3-15.8-2.5-4.3-5.8-11.4-7.4-15.8-1.6-4.4-3.7-12.1-4.7-17-1.2-6.3-1.8-13.8-1.8-25 0-11.5 0.5-18.5 1.8-25 1-4.9 3.1-12.6 4.7-17 1.7-4.4 4.6-10.9 6.6-14.5 2-3.6 5.5-9 7.8-12 2.3-3 7.6-8.7 11.6-12.5 4.1-3.9 10.8-9.2 14.9-11.7 4.1-2.6 11.3-6.3 16-8.2 4.7-2 12.1-4.4 16.5-5.6 4.4-1.1 11.2-2.4 15-2.9 3.9-0.5 10.8-0.9 15.5-1zm-17.5 51.6c-2.2 1.2-5.8 4.1-8.1 6.5-2.2 2.4-5 5.9-6.1 7.8-1.2 1.9-3 6.7-4.2 10.5-1.2 3.8-2.1 7.3-2.1 7.8 0 0.4 17 0.7 37.8 0.7h37.7c-1.1-8.5-2.4-13.4-3.4-16.2-1.1-2.9-3.4-7.2-5-9.5-1.7-2.4-5.2-5.5-7.8-7-2.6-1.5-7.3-3.3-10.3-4-3-0.7-7.5-1.2-10-1.2-2.5 0-6.7 0.6-9.5 1.3-2.7 0.7-6.8 2.2-9 3.3zm375-51.2c6.1 0.2 13.9 1.1 17.5 2 3.6 0.9 9.2 2.9 12.5 4.5 3.3 1.5 8.7 5 12 7.7 3.2 2.6 8.1 7.7 15.6 17.8l-0.1-26.5h72l-0.5 206.5h-71l-1-29.9-5 6.8c-2.7 3.8-7.7 9.1-11 11.9-3.3 2.7-9.6 6.7-14 8.9-4.9 2.3-11.9 4.6-18 5.9-7.7 1.6-11.7 1.9-17.5 1.4-4.1-0.4-11.5-1.7-16.5-3-4.9-1.2-12.8-4.2-17.4-6.6-5.7-3-11.1-6.9-16.4-11.9-4.4-4.1-9.6-10-11.7-13-2-3-5.3-8.6-7.2-12.5-2-3.8-4.7-10.6-6.1-15-1.3-4.4-3.2-12.5-4.2-18-1.2-6.9-1.7-15.4-1.7-27.5 0-11.5 0.6-20.9 1.6-27.5 0.9-5.5 3.4-14.9 5.4-21 2.1-6.1 5.7-14.4 8-18.5 2.4-4.1 6.6-10.3 9.5-13.6 2.9-3.4 7.7-8.3 10.7-10.9 3-2.5 8.2-6.2 11.5-8 3.3-1.9 8.7-4.4 12-5.5 3.3-1.2 9.2-2.8 13-3.6 4.6-0.9 10.9-1.2 18-0.9zm3.5 57.5c-2.2 1.1-5.7 3.7-7.8 5.8-2.1 2-5.2 6.6-6.9 10.2-1.8 3.6-3.9 10-4.7 14.3-0.9 4.4-1.6 12.9-1.6 20.2 0 7.6 0.7 15.5 1.6 20.3 0.9 4.2 2.7 10 3.9 12.7 1.3 2.8 3.5 6.6 4.9 8.5 1.5 1.9 5 5.1 7.9 7.1 3.9 2.6 7.2 3.9 12.7 4.9 6.1 1.1 8.7 1.1 14 0.1 3.6-0.7 8.7-2.4 11.4-3.9 2.7-1.5 6.4-4.4 8.2-6.4 1.9-2.1 4.6-6.2 6.1-9 1.4-2.9 3.3-7.3 4.1-9.8 0.9-2.9 1.6-10.5 2-21 0.4-13.4 0.2-18-1.3-24.5-0.9-4.4-2.7-10.2-4-13-1.3-2.7-4.3-7.2-6.7-9.8-2.6-3-6.5-5.9-9.8-7.4-4.2-2-7.4-2.7-14-2.9-4.7-0.2-10.2 0.1-12.2 0.6-2.1 0.6-5.6 1.9-7.8 3zm467.5-57.5c7.7 0.2 17.6 1.1 22 2 4.4 0.9 12.1 3 17 4.6 5 1.7 12.4 4.8 16.5 7 4.1 2.2 10.9 6.6 14.9 9.7 4.1 3.1 9.7 8.2 12.4 11.2 2.7 3 7 8.7 9.5 12.5 2.5 3.9 5.9 9.9 7.5 13.5 1.6 3.6 4 10.6 5.3 15.5 1.3 4.9 2.8 13.9 3.4 20 0.6 6.9 0.6 15.3 0 22.5-0.5 6.3-2 15.8-3.3 21-1.3 5.2-4 12.9-5.8 17-1.9 4.1-5.9 11-8.9 15.4-3 4.3-8.9 11.1-13 14.9-4.1 3.9-10.9 9.3-15 11.9-4.1 2.7-10.6 6.1-14.5 7.7-3.8 1.6-10.8 4.1-15.5 5.4-4.7 1.4-14.3 3.3-21.5 4.2-8.6 1.1-15.7 1.5-21 1-4.4-0.3-12.1-1.3-17.2-2.1-5.1-0.7-13-2.6-17.5-4-4.6-1.4-11.4-4-15.3-5.8-3.8-1.8-10.5-5.6-14.9-8.6-4.3-3-11.3-9.1-15.5-13.5-4.2-4.4-9.8-11.6-12.4-16-2.6-4.4-6-11.6-7.6-16-1.6-4.4-3.6-11.6-4.5-16-0.9-4.4-1.9-12.7-2.3-18.5-0.3-5.8 0-15 0.6-20.5 0.6-5.5 1.9-13.4 3-17.5 1-4.1 3.4-11.1 5.2-15.5 1.8-4.4 5.9-11.8 9-16.5 3.2-4.7 9-11.7 13.1-15.6 4-3.9 10-8.9 13.3-11.1 3.3-2.2 9.2-5.6 13-7.5 3.9-2 11.3-4.9 16.5-6.6 5.2-1.6 12.9-3.5 17-4.1 4.1-0.6 8.6-1.3 10-1.5 1.4-0.3 8.8-0.3 16.5-0.1zm-24.5 58.2c-1.9 1.2-5.3 4.1-7.5 6.5-2.2 2.3-5 6.3-6.2 8.8-1.2 2.5-3 7.4-4 11-1.4 5.1-1.8 10.2-1.7 24 0 13.6 0.4 18.9 1.8 24 1 3.6 2.9 8.6 4.2 11.3 1.3 2.6 4.3 6.8 6.7 9.3 2.3 2.5 6.7 5.8 9.7 7.2 5 2.5 6.6 2.7 17.5 2.7 11 0 12.5-0.2 17.5-2.7 3-1.4 7.5-4.8 10-7.5 2.4-2.6 5.7-7.5 7.2-10.8 1.6-3.3 3.5-9.8 4.4-14.5 1.3-6.5 1.5-12 1.1-23.5-0.3-9-1.2-17.2-2.1-20.5-0.9-3-2.7-7.8-4-10.5-1.3-2.8-4.4-7-6.8-9.5-2.3-2.4-6.8-5.6-9.8-7-4.6-2.1-7.1-2.5-16-2.7-6.3-0.2-12.1 0.2-14.5 1-2.2 0.7-5.6 2.2-7.5 3.4zm-542-55.7v66h-5c-2.7 0-9.4 0.5-14.7 1.1-5.4 0.6-13.2 2.2-17.3 3.5-4.1 1.3-9.8 3.9-12.7 5.9-2.9 1.9-6.8 5.6-8.7 8.3-2 2.6-4.3 6.7-5.3 9.2-1.6 4-1.8 10.2-2.8 115.5l-70.5 0.5v-207h71l0.1 18.8c0 12.4 0.4 18.2 1 17.2 0.5-0.8 2.6-4.3 4.7-7.8 2-3.4 6.2-8.8 9.2-11.9 3-3.1 8.2-7.4 11.5-9.5 3.3-2.1 8.9-4.8 12.5-6 3.6-1.1 8.5-2.4 11-2.8 2.5-0.4 7.1-0.8 16-1z"/>
</svg>